<svg width="142" height="39" viewBox="0 0 142 39" fill="none" xmlns="http://www.w3.org/2000/svg">
<mask id="path-1-outside-1_0_62" maskUnits="userSpaceOnUse" x="-2.70312" y="-2.00018" width="148" height="43" fill="black">
<rect fill="white" x="-2.70312" y="-2.00018" width="148" height="43"/>
<path d="M0.0168751 29.9998V1.75982H4.49688L15.6169 19.0798H13.3369L24.4169 1.75982H28.9369V29.9998H22.6569V12.3598L23.7769 12.6398L16.5369 23.9198H12.3769L5.17688 12.6398L6.25688 12.3598V29.9998H0.0168751ZM43.1528 30.4398C41.1528 30.4398 39.3395 29.9998 37.7128 29.1198C36.1128 28.2132 34.8461 26.9865 33.9128 25.4398C32.9795 23.8931 32.5128 22.1598 32.5128 20.2398C32.5128 18.3198 32.9795 16.5998 33.9128 15.0798C34.8461 13.5598 36.1128 12.3598 37.7128 11.4798C39.3128 10.5731 41.1261 10.1198 43.1528 10.1198C45.1795 10.1198 46.9928 10.5598 48.5928 11.4398C50.1928 12.3198 51.4595 13.5331 52.3928 15.0798C53.3261 16.5998 53.7928 18.3198 53.7928 20.2398C53.7928 22.1598 53.3261 23.8931 52.3928 25.4398C51.4595 26.9865 50.1928 28.2132 48.5928 29.1198C46.9928 29.9998 45.1795 30.4398 43.1528 30.4398ZM43.1528 24.8798C44.0328 24.8798 44.8061 24.6932 45.4728 24.3198C46.1395 23.9198 46.6461 23.3731 46.9928 22.6798C47.3661 21.9598 47.5528 21.1465 47.5528 20.2398C47.5528 19.3331 47.3661 18.5465 46.9928 17.8798C46.6195 17.1865 46.0995 16.6531 45.4328 16.2798C44.7928 15.8798 44.0328 15.6798 43.1528 15.6798C42.2995 15.6798 41.5395 15.8798 40.8728 16.2798C40.2061 16.6531 39.6861 17.1865 39.3128 17.8798C38.9395 18.5731 38.7528 19.3731 38.7528 20.2798C38.7528 21.1598 38.9395 21.9598 39.3128 22.6798C39.6861 23.3731 40.2061 23.9198 40.8728 24.3198C41.5395 24.6932 42.2995 24.8798 43.1528 24.8798ZM69.6797 29.9998V18.9198C69.6797 17.9065 69.3597 17.0931 68.7197 16.4798C68.1064 15.8398 67.3197 15.5198 66.3597 15.5198C65.693 15.5198 65.1064 15.6665 64.5997 15.9598C64.093 16.2265 63.693 16.6265 63.3997 17.1598C63.1064 17.6665 62.9597 18.2531 62.9597 18.9198L60.5997 17.7598C60.5997 16.2398 60.933 14.9065 61.5997 13.7598C62.2664 12.6131 63.1864 11.7331 64.3597 11.1198C65.5597 10.4798 66.9064 10.1598 68.3997 10.1598C69.8397 10.1598 71.1064 10.5065 72.1997 11.1998C73.3197 11.8665 74.1997 12.7598 74.8397 13.8798C75.4797 14.9998 75.7997 16.2265 75.7997 17.5598V29.9998H69.6797ZM56.8397 29.9998V10.5598H62.9597V29.9998H56.8397ZM92.1703 29.9998L85.3703 19.9198L92.1303 10.5598H98.9703L90.8103 21.0798L91.0103 18.5598L99.3703 29.9998H92.1703ZM79.7303 29.9998V0.959816H85.8503V29.9998H79.7303ZM110.307 30.4398C108.2 30.4398 106.32 30.0132 104.667 29.1598C103.04 28.2798 101.76 27.0665 100.827 25.5198C99.8935 23.9732 99.4269 22.2265 99.4269 20.2798C99.4269 18.3331 99.8802 16.5998 100.787 15.0798C101.72 13.5331 102.974 12.3198 104.547 11.4398C106.12 10.5598 107.894 10.1198 109.867 10.1198C111.787 10.1198 113.48 10.5331 114.947 11.3598C116.414 12.1865 117.56 13.3331 118.387 14.7998C119.24 16.2665 119.667 17.9465 119.667 19.8398C119.667 20.1865 119.64 20.5598 119.587 20.9598C119.56 21.3331 119.494 21.7731 119.387 22.2798L102.627 22.3198V18.1198L116.787 18.0798L114.147 19.8398C114.12 18.7198 113.947 17.7998 113.627 17.0798C113.307 16.3331 112.827 15.7731 112.187 15.3998C111.574 14.9998 110.814 14.7998 109.907 14.7998C108.947 14.7998 108.107 15.0265 107.387 15.4798C106.694 15.9065 106.147 16.5198 105.747 17.3198C105.374 18.1198 105.187 19.0931 105.187 20.2398C105.187 21.3865 105.387 22.3732 105.787 23.1998C106.214 23.9998 106.8 24.6265 107.547 25.0798C108.32 25.5065 109.227 25.7198 110.267 25.7198C111.227 25.7198 112.094 25.5598 112.867 25.2398C113.64 24.8932 114.32 24.3865 114.907 23.7198L118.267 27.0798C117.307 28.1998 116.147 29.0398 114.787 29.5998C113.427 30.1598 111.934 30.4398 110.307 30.4398ZM128.308 30.0798L120.308 10.5598H126.908L131.988 26.0398H129.548L134.748 10.5598H141.348L133.028 30.0798H128.308ZM123.308 38.1998L129.148 25.5998L133.028 30.0798L129.588 38.1998H123.308Z"/>
</mask>
<path d="M0.0168751 29.9998V1.75982H4.49688L15.6169 19.0798H13.3369L24.4169 1.75982H28.9369V29.9998H22.6569V12.3598L23.7769 12.6398L16.5369 23.9198H12.3769L5.17688 12.6398L6.25688 12.3598V29.9998H0.0168751ZM43.1528 30.4398C41.1528 30.4398 39.3395 29.9998 37.7128 29.1198C36.1128 28.2132 34.8461 26.9865 33.9128 25.4398C32.9795 23.8931 32.5128 22.1598 32.5128 20.2398C32.5128 18.3198 32.9795 16.5998 33.9128 15.0798C34.8461 13.5598 36.1128 12.3598 37.7128 11.4798C39.3128 10.5731 41.1261 10.1198 43.1528 10.1198C45.1795 10.1198 46.9928 10.5598 48.5928 11.4398C50.1928 12.3198 51.4595 13.5331 52.3928 15.0798C53.3261 16.5998 53.7928 18.3198 53.7928 20.2398C53.7928 22.1598 53.3261 23.8931 52.3928 25.4398C51.4595 26.9865 50.1928 28.2132 48.5928 29.1198C46.9928 29.9998 45.1795 30.4398 43.1528 30.4398ZM43.1528 24.8798C44.0328 24.8798 44.8061 24.6932 45.4728 24.3198C46.1395 23.9198 46.6461 23.3731 46.9928 22.6798C47.3661 21.9598 47.5528 21.1465 47.5528 20.2398C47.5528 19.3331 47.3661 18.5465 46.9928 17.8798C46.6195 17.1865 46.0995 16.6531 45.4328 16.2798C44.7928 15.8798 44.0328 15.6798 43.1528 15.6798C42.2995 15.6798 41.5395 15.8798 40.8728 16.2798C40.2061 16.6531 39.6861 17.1865 39.3128 17.8798C38.9395 18.5731 38.7528 19.3731 38.7528 20.2798C38.7528 21.1598 38.9395 21.9598 39.3128 22.6798C39.6861 23.3731 40.2061 23.9198 40.8728 24.3198C41.5395 24.6932 42.2995 24.8798 43.1528 24.8798ZM69.6797 29.9998V18.9198C69.6797 17.9065 69.3597 17.0931 68.7197 16.4798C68.1064 15.8398 67.3197 15.5198 66.3597 15.5198C65.693 15.5198 65.1064 15.6665 64.5997 15.9598C64.093 16.2265 63.693 16.6265 63.3997 17.1598C63.1064 17.6665 62.9597 18.2531 62.9597 18.9198L60.5997 17.7598C60.5997 16.2398 60.933 14.9065 61.5997 13.7598C62.2664 12.6131 63.1864 11.7331 64.3597 11.1198C65.5597 10.4798 66.9064 10.1598 68.3997 10.1598C69.8397 10.1598 71.1064 10.5065 72.1997 11.1998C73.3197 11.8665 74.1997 12.7598 74.8397 13.8798C75.4797 14.9998 75.7997 16.2265 75.7997 17.5598V29.9998H69.6797ZM56.8397 29.9998V10.5598H62.9597V29.9998H56.8397ZM92.1703 29.9998L85.3703 19.9198L92.1303 10.5598H98.9703L90.8103 21.0798L91.0103 18.5598L99.3703 29.9998H92.1703ZM79.7303 29.9998V0.959816H85.8503V29.9998H79.7303ZM110.307 30.4398C108.2 30.4398 106.32 30.0132 104.667 29.1598C103.04 28.2798 101.76 27.0665 100.827 25.5198C99.8935 23.9732 99.4269 22.2265 99.4269 20.2798C99.4269 18.3331 99.8802 16.5998 100.787 15.0798C101.72 13.5331 102.974 12.3198 104.547 11.4398C106.12 10.5598 107.894 10.1198 109.867 10.1198C111.787 10.1198 113.48 10.5331 114.947 11.3598C116.414 12.1865 117.56 13.3331 118.387 14.7998C119.24 16.2665 119.667 17.9465 119.667 19.8398C119.667 20.1865 119.64 20.5598 119.587 20.9598C119.56 21.3331 119.494 21.7731 119.387 22.2798L102.627 22.3198V18.1198L116.787 18.0798L114.147 19.8398C114.12 18.7198 113.947 17.7998 113.627 17.0798C113.307 16.3331 112.827 15.7731 112.187 15.3998C111.574 14.9998 110.814 14.7998 109.907 14.7998C108.947 14.7998 108.107 15.0265 107.387 15.4798C106.694 15.9065 106.147 16.5198 105.747 17.3198C105.374 18.1198 105.187 19.0931 105.187 20.2398C105.187 21.3865 105.387 22.3732 105.787 23.1998C106.214 23.9998 106.8 24.6265 107.547 25.0798C108.32 25.5065 109.227 25.7198 110.267 25.7198C111.227 25.7198 112.094 25.5598 112.867 25.2398C113.64 24.8932 114.32 24.3865 114.907 23.7198L118.267 27.0798C117.307 28.1998 116.147 29.0398 114.787 29.5998C113.427 30.1598 111.934 30.4398 110.307 30.4398ZM128.308 30.0798L120.308 10.5598H126.908L131.988 26.0398H129.548L134.748 10.5598H141.348L133.028 30.0798H128.308ZM123.308 38.1998L129.148 25.5998L133.028 30.0798L129.588 38.1998H123.308Z" fill="#56CAB1"/>
<path d="M0.0168753 29.9998H-1.98312V31.9998H0.0168753V29.9998ZM0.0168753 1.75982V-0.240185H-1.98312V1.75982H0.0168753ZM4.49688 1.75982L6.17986 0.679283L5.58954 -0.240185H4.49688V1.75982ZM15.6169 19.0798V21.0798H19.2777L17.2999 17.9993L15.6169 19.0798ZM13.3369 19.0798L11.6521 18.002L9.6832 21.0798H13.3369V19.0798ZM24.4169 1.75982V-0.240185H23.3221L22.7321 0.682039L24.4169 1.75982ZM28.9369 1.75982H30.9369V-0.240185H28.9369V1.75982ZM28.9369 29.9998V31.9998H30.9369V29.9998H28.9369ZM22.6569 29.9998H20.6569V31.9998H22.6569V29.9998ZM22.6569 12.3598L23.1419 10.4195L20.6569 9.79827V12.3598H22.6569ZM23.7769 12.6398L25.46 13.7201L26.965 11.3753L24.2619 10.6995L23.7769 12.6398ZM16.5369 23.9198V25.9198H17.6297L18.22 25.0001L16.5369 23.9198ZM12.3769 23.9198L10.691 24.9959L11.2808 25.9198H12.3769V23.9198ZM5.17688 12.6398L4.67495 10.7038L2.00952 11.3949L3.49103 13.7159L5.17688 12.6398ZM6.25688 12.3598H8.25688V9.77518L5.75495 10.4238L6.25688 12.3598ZM6.25688 29.9998V31.9998H8.25688V29.9998H6.25688ZM2.01688 29.9998V1.75982H-1.98312V29.9998H2.01688ZM0.0168753 3.75982H4.49688V-0.240185H0.0168753V3.75982ZM2.81389 2.84035L13.9339 20.1603L17.2999 17.9993L6.17986 0.679283L2.81389 2.84035ZM15.6169 17.0798H13.3369V21.0798H15.6169V17.0798ZM15.0216 20.1576L26.1016 2.83759L22.7321 0.682039L11.6521 18.002L15.0216 20.1576ZM24.4169 3.75982H28.9369V-0.240185H24.4169V3.75982ZM26.9369 1.75982V29.9998H30.9369V1.75982H26.9369ZM28.9369 27.9998H22.6569V31.9998H28.9369V27.9998ZM24.6569 29.9998V12.3598H20.6569V29.9998H24.6569ZM22.1718 14.3001L23.2918 14.5801L24.2619 10.6995L23.1419 10.4195L22.1718 14.3001ZM22.0937 11.5595L14.8537 22.8395L18.22 25.0001L25.46 13.7201L22.0937 11.5595ZM16.5369 21.9198H12.3769V25.9198H16.5369V21.9198ZM14.0627 22.8437L6.86272 11.5637L3.49103 13.7159L10.691 24.9959L14.0627 22.8437ZM5.6788 14.5758L6.7588 14.2958L5.75495 10.4238L4.67495 10.7038L5.6788 14.5758ZM4.25688 12.3598V29.9998H8.25688V12.3598H4.25688ZM6.25688 27.9998H0.0168753V31.9998H6.25688V27.9998ZM37.7128 29.1198L36.7268 30.8599L36.7439 30.8696L36.7612 30.8789L37.7128 29.1198ZM33.9128 25.4398L35.6252 24.4065L33.9128 25.4398ZM33.9128 15.0798L32.2085 14.0333L33.9128 15.0798ZM37.7128 11.4798L38.6767 13.2322L38.6878 13.2261L38.6988 13.2199L37.7128 11.4798ZM52.3928 15.0798L50.6804 16.1131L50.6844 16.1198L50.6885 16.1263L52.3928 15.0798ZM52.3928 25.4398L54.1052 26.4731V26.4731L52.3928 25.4398ZM48.5928 29.1198L49.5567 30.8722L49.5678 30.8661L49.5788 30.8599L48.5928 29.1198ZM45.4728 24.3198L46.45 26.0648L46.4761 26.0502L46.5018 26.0348L45.4728 24.3198ZM46.9928 22.6798L45.2173 21.7592L45.2105 21.7722L45.204 21.7854L46.9928 22.6798ZM46.9928 17.8798L45.2319 18.828L45.2397 18.8426L45.2478 18.857L46.9928 17.8798ZM45.4328 16.2798L44.3728 17.9758L44.4136 18.0013L44.4556 18.0248L45.4328 16.2798ZM40.8728 16.2798L41.85 18.0248L41.8761 18.0102L41.9018 17.9948L40.8728 16.2798ZM39.3128 17.8798L41.0738 18.828L39.3128 17.8798ZM39.3128 22.6798L37.5373 23.6005L37.5445 23.6143L37.5519 23.628L39.3128 22.6798ZM40.8728 24.3198L39.8438 26.0348L39.8695 26.0502L39.8956 26.0648L40.8728 24.3198ZM43.1528 28.4398C41.4573 28.4398 39.9754 28.0699 38.6645 27.3607L36.7612 30.8789C38.7036 31.9297 40.8483 32.4398 43.1528 32.4398V28.4398ZM38.6988 27.3798C37.392 26.6392 36.3778 25.6536 35.6252 24.4065L32.2004 26.4731C33.3145 28.3193 34.8337 29.7871 36.7268 30.8599L38.6988 27.3798ZM35.6252 24.4065C34.892 23.1914 34.5128 21.8194 34.5128 20.2398H30.5128C30.5128 22.5002 31.067 24.5949 32.2004 26.4731L35.6252 24.4065ZM34.5128 20.2398C34.5128 18.6599 34.8919 17.3074 35.6172 16.1263L32.2085 14.0333C31.067 15.8922 30.5128 17.9797 30.5128 20.2398H34.5128ZM35.6172 16.1263C36.3646 14.9091 37.373 13.9493 38.6767 13.2322L36.749 9.72738C34.8527 10.7704 33.3277 12.2105 32.2085 14.0333L35.6172 16.1263ZM38.6988 13.2199C39.9682 12.5006 41.4356 12.1198 43.1528 12.1198V8.11982C40.8167 8.11982 38.6574 8.64574 36.7268 9.73977L38.6988 13.2199ZM43.1528 12.1198C44.8803 12.1198 46.3557 12.4919 47.629 13.1922L49.5567 9.68738C47.6299 8.62769 45.4787 8.11982 43.1528 8.11982V12.1198ZM47.629 13.1922C48.924 13.9045 49.931 14.8713 50.6804 16.1131L54.1052 14.0465C52.9879 12.195 51.4616 10.7351 49.5567 9.68738L47.629 13.1922ZM50.6885 16.1263C51.4137 17.3074 51.7928 18.6599 51.7928 20.2398H55.7928C55.7928 17.9797 55.2386 15.8922 54.0972 14.0333L50.6885 16.1263ZM51.7928 20.2398C51.7928 21.8194 51.4137 23.1914 50.6804 24.4065L54.1052 26.4731C55.2386 24.5949 55.7928 22.5002 55.7928 20.2398H51.7928ZM50.6804 24.4065C49.9279 25.6536 48.9137 26.6392 47.6068 27.3798L49.5788 30.8599C51.472 29.7871 52.9911 28.3193 54.1052 26.4731L50.6804 24.4065ZM47.629 27.3674C46.3557 28.0677 44.8803 28.4398 43.1528 28.4398V32.4398C45.4787 32.4398 47.6299 31.9319 49.5567 30.8722L47.629 27.3674ZM43.1528 26.8798C44.3225 26.8798 45.4421 26.6292 46.45 26.0648L44.4956 22.5748C44.1702 22.757 43.7431 22.8798 43.1528 22.8798V26.8798ZM46.5018 26.0348C47.4936 25.4397 48.2644 24.6089 48.7817 23.5742L45.204 21.7854C45.0279 22.1374 44.7854 22.3999 44.4438 22.6048L46.5018 26.0348ZM48.7683 23.6005C49.3058 22.5638 49.5528 21.4286 49.5528 20.2398H45.5528C45.5528 20.8643 45.4265 21.3558 45.2173 21.7592L48.7683 23.6005ZM49.5528 20.2398C49.5528 19.0549 49.3071 17.9191 48.7378 16.9026L45.2478 18.857C45.4252 19.1739 45.5528 19.6114 45.5528 20.2398H49.5528ZM48.7538 16.9316C48.206 15.9144 47.4189 15.0998 46.41 14.5348L44.4556 18.0248C44.7801 18.2065 45.0329 18.4586 45.2319 18.828L48.7538 16.9316ZM46.4928 14.5838C45.4852 13.9541 44.3444 13.6798 43.1528 13.6798V17.6798C43.7213 17.6798 44.1004 17.8055 44.3728 17.9758L46.4928 14.5838ZM43.1528 13.6798C41.9735 13.6798 40.8512 13.9604 39.8438 14.5648L41.9018 17.9948C42.2278 17.7992 42.6255 17.6798 43.1528 17.6798V13.6798ZM39.8956 14.5348C38.8867 15.0998 38.0996 15.9144 37.5519 16.9316L41.0738 18.828C41.2727 18.4586 41.5256 18.2065 41.85 18.0248L39.8956 14.5348ZM37.5519 16.9316C36.9993 17.9578 36.7528 19.0927 36.7528 20.2798H40.7528C40.7528 19.6536 40.8797 19.1885 41.0738 18.828L37.5519 16.9316ZM36.7528 20.2798C36.7528 21.4524 37.0042 22.5723 37.5373 23.6005L41.0883 21.7592C40.8748 21.3474 40.7528 20.8672 40.7528 20.2798H36.7528ZM37.5519 23.628C38.0935 24.6338 38.8645 25.4472 39.8438 26.0348L41.9018 22.6048C41.5478 22.3924 41.2788 22.1125 41.0738 21.7316L37.5519 23.628ZM39.8956 26.0648C40.8945 26.6242 41.9981 26.8798 43.1528 26.8798V22.8798C42.6009 22.8798 42.1845 22.7621 41.85 22.5748L39.8956 26.0648ZM69.6797 29.9998H67.6797V31.9998H69.6797V29.9998ZM68.7197 16.4798L67.2757 17.8636L67.3052 17.8944L67.3359 17.9238L68.7197 16.4798ZM64.5997 15.9598L65.5312 17.7297L65.5669 17.7109L65.6018 17.6907L64.5997 15.9598ZM63.3997 17.1598L65.1305 18.1619L65.1415 18.1429L65.1521 18.1237L63.3997 17.1598ZM62.9597 18.9198L62.0775 20.7147L64.9597 22.1314V18.9198H62.9597ZM60.5997 17.7598H58.5997V19.0053L59.7174 19.5547L60.5997 17.7598ZM64.3597 11.1198L65.2862 12.8923L65.2935 12.8884L65.3009 12.8845L64.3597 11.1198ZM72.1997 11.1998L71.1286 12.8888L71.1525 12.904L71.1767 12.9184L72.1997 11.1998ZM74.8397 13.8798L73.1032 14.8721L74.8397 13.8798ZM75.7997 29.9998V31.9998H77.7997V29.9998H75.7997ZM56.8397 29.9998H54.8397V31.9998H56.8397V29.9998ZM56.8397 10.5598V8.55982H54.8397V10.5598H56.8397ZM62.9597 10.5598H64.9597V8.55982H62.9597V10.5598ZM62.9597 29.9998V31.9998H64.9597V29.9998H62.9597ZM71.6797 29.9998V18.9198H67.6797V29.9998H71.6797ZM71.6797 18.9198C71.6797 17.4467 71.1948 16.0816 70.1035 15.0358L67.3359 17.9238C67.5246 18.1047 67.6797 18.3663 67.6797 18.9198H71.6797ZM70.1637 15.096C69.1397 14.0275 67.8146 13.5198 66.3597 13.5198V17.5198C66.8248 17.5198 67.073 17.6521 67.2757 17.8636L70.1637 15.096ZM66.3597 13.5198C65.3908 13.5198 64.4491 13.736 63.5976 14.229L65.6018 17.6907C65.7636 17.597 65.9953 17.5198 66.3597 17.5198V13.5198ZM63.6682 14.19C62.7926 14.6508 62.1169 15.3421 61.6473 16.196L65.1521 18.1237C65.2692 17.9108 65.3935 17.8021 65.5312 17.7297L63.6682 14.19ZM61.6688 16.1577C61.1759 17.0092 60.9597 17.9509 60.9597 18.9198H64.9597C64.9597 18.5554 65.0368 18.3238 65.1305 18.1619L61.6688 16.1577ZM63.8419 17.1249L61.4819 15.9649L59.7174 19.5547L62.0775 20.7147L63.8419 17.1249ZM62.5997 17.7598C62.5997 16.5406 62.8641 15.5642 63.3287 14.7651L59.8707 12.7546C59.0019 14.2488 58.5997 15.939 58.5997 17.7598H62.5997ZM63.3287 14.7651C63.806 13.9441 64.4481 13.3304 65.2862 12.8923L63.4332 9.34736C61.9247 10.1359 60.7267 11.2822 59.8707 12.7546L63.3287 14.7651ZM65.3009 12.8845C66.1835 12.4138 67.2018 12.1598 68.3997 12.1598V8.15982C66.6109 8.15982 64.9358 8.54587 63.4185 9.35511L65.3009 12.8845ZM68.3997 12.1598C69.5044 12.1598 70.3908 12.421 71.1286 12.8888L73.2708 9.5108C71.8219 8.592 70.175 8.15982 68.3997 8.15982V12.1598ZM71.1767 12.9184C72.0034 13.4105 72.6363 14.055 73.1032 14.8721L76.5762 12.8875C75.7631 11.4647 74.6359 10.3225 73.2227 9.48123L71.1767 12.9184ZM73.1032 14.8721C73.5646 15.6795 73.7997 16.5623 73.7997 17.5598H77.7997C77.7997 15.8906 77.3948 14.3202 76.5762 12.8875L73.1032 14.8721ZM73.7997 17.5598V29.9998H77.7997V17.5598H73.7997ZM75.7997 27.9998H69.6797V31.9998H75.7997V27.9998ZM58.8397 29.9998V10.5598H54.8397V29.9998H58.8397ZM56.8397 12.5598H62.9597V8.55982H56.8397V12.5598ZM60.9597 10.5598V29.9998H64.9597V10.5598H60.9597ZM62.9597 27.9998H56.8397V31.9998H62.9597V27.9998ZM92.1703 29.9998L90.5123 31.1183L91.107 31.9998H92.1703V29.9998ZM85.3703 19.9198L83.749 18.7488L82.9314 19.8808L83.7123 21.0383L85.3703 19.9198ZM92.1303 10.5598V8.55982H91.1077L90.509 9.38883L92.1303 10.5598ZM98.9703 10.5598L100.551 11.7856L103.053 8.55982H98.9703V10.5598ZM90.8103 21.0798L88.8166 20.9216L88.2868 27.5963L92.3906 22.3056L90.8103 21.0798ZM91.0103 18.5598L92.6251 17.3798L89.4432 13.0257L89.0166 18.4016L91.0103 18.5598ZM99.3703 29.9998V31.9998H103.309L100.985 28.8198L99.3703 29.9998ZM79.7303 29.9998H77.7303V31.9998H79.7303V29.9998ZM79.7303 0.959816V-1.04018H77.7303V0.959816H79.7303ZM85.8503 0.959816H87.8503V-1.04018H85.8503V0.959816ZM85.8503 29.9998V31.9998H87.8503V29.9998H85.8503ZM93.8283 28.8813L87.0283 18.8013L83.7123 21.0383L90.5123 31.1183L93.8283 28.8813ZM86.9917 21.0908L93.7517 11.7308L90.509 9.38883L83.749 18.7488L86.9917 21.0908ZM92.1303 12.5598H98.9703V8.55982H92.1303V12.5598ZM97.39 9.33401L89.23 19.854L92.3906 22.3056L100.551 11.7856L97.39 9.33401ZM92.804 21.238L93.004 18.718L89.0166 18.4016L88.8166 20.9216L92.804 21.238ZM89.3955 19.7398L97.7555 31.1799L100.985 28.8198L92.6251 17.3798L89.3955 19.7398ZM99.3703 27.9998H92.1703V31.9998H99.3703V27.9998ZM81.7303 29.9998V0.959816H77.7303V29.9998H81.7303ZM79.7303 2.95982H85.8503V-1.04018H79.7303V2.95982ZM83.8503 0.959816V29.9998H87.8503V0.959816H83.8503ZM85.8503 27.9998H79.7303V31.9998H85.8503V27.9998ZM104.667 29.1598L103.715 30.9189L103.732 30.9281L103.75 30.9371L104.667 29.1598ZM100.827 25.5198L102.539 24.4865L100.827 25.5198ZM100.787 15.0798L99.0745 14.0465L99.0692 14.0553L100.787 15.0798ZM104.547 11.4398L103.571 9.6943L104.547 11.4398ZM118.387 14.7998L116.645 15.7818L116.651 15.7938L116.658 15.8056L118.387 14.7998ZM119.587 20.9598L117.604 20.6955L117.596 20.7562L117.592 20.8173L119.587 20.9598ZM119.387 22.2798L119.392 24.2798L121.01 24.2759L121.344 22.6918L119.387 22.2798ZM102.627 22.3198H100.627V24.3246L102.632 24.3198L102.627 22.3198ZM102.627 18.1198L102.621 16.1198L100.627 16.1255V18.1198H102.627ZM116.787 18.0798L117.896 19.7439L123.421 16.0611L116.781 16.0798L116.787 18.0798ZM114.147 19.8398L112.147 19.8874L112.234 23.5188L115.256 21.5039L114.147 19.8398ZM113.627 17.0798L111.789 17.8677L111.794 17.8799L111.799 17.8921L113.627 17.0798ZM112.187 15.3998L111.094 17.075L111.136 17.1023L111.179 17.1274L112.187 15.3998ZM107.387 15.4798L108.435 17.1831L108.444 17.1778L108.452 17.1723L107.387 15.4798ZM105.747 17.3198L103.958 16.4254L103.946 16.4496L103.935 16.474L105.747 17.3198ZM105.787 23.1998L103.987 24.0709L104.004 24.1063L104.022 24.141L105.787 23.1998ZM107.547 25.0798L106.509 26.7894L106.544 26.8109L106.581 26.831L107.547 25.0798ZM112.867 25.2398L113.632 27.0878L113.658 27.0767L113.685 27.0648L112.867 25.2398ZM114.907 23.7198L116.321 22.3056L114.814 20.7982L113.405 22.3986L114.907 23.7198ZM118.267 27.0798L119.785 28.3814L120.991 26.9752L119.681 25.6656L118.267 27.0798ZM114.787 29.5998L114.025 27.7505L114.787 29.5998ZM110.307 28.4398C108.477 28.4398 106.918 28.0712 105.584 27.3826L103.75 30.9371C105.722 31.9551 107.924 32.4398 110.307 32.4398V28.4398ZM105.619 27.4007C104.298 26.6862 103.284 25.7202 102.539 24.4865L99.1145 26.5531C100.237 28.4128 101.783 29.8734 103.715 30.9189L105.619 27.4007ZM102.539 24.4865C101.809 23.2758 101.427 21.8916 101.427 20.2798H97.4269C97.4269 22.5614 97.9784 24.6705 99.1145 26.5531L102.539 24.4865ZM101.427 20.2798C101.427 18.6568 101.801 17.2842 102.505 16.1044L99.0692 14.0553C97.9596 15.9155 97.4269 18.0095 97.4269 20.2798H101.427ZM102.499 16.1131C103.254 14.8631 104.254 13.8955 105.523 13.1853L103.571 9.6943C101.694 10.7442 100.187 12.2032 99.0745 14.0465L102.499 16.1131ZM105.523 13.1853C106.77 12.4877 108.202 12.1198 109.867 12.1198V8.11982C107.585 8.11982 105.47 8.63195 103.571 9.6943L105.523 13.1853ZM109.867 12.1198C111.492 12.1198 112.838 12.4669 113.965 13.1021L115.929 9.61751C114.123 8.59937 112.082 8.11982 109.867 8.11982V12.1198ZM113.965 13.1021C115.113 13.7495 115.997 14.6332 116.645 15.7818L120.129 13.8178C119.123 12.0331 117.714 10.6235 115.929 9.61751L113.965 13.1021ZM116.658 15.8056C117.314 16.9326 117.667 18.2579 117.667 19.8398H121.667C121.667 17.635 121.167 15.6004 120.116 13.794L116.658 15.8056ZM117.667 19.8398C117.667 20.0851 117.648 20.3693 117.604 20.6955L121.569 21.2241C121.632 20.7504 121.667 20.2878 121.667 19.8398H117.667ZM117.592 20.8173C117.574 21.0732 117.524 21.419 117.43 21.8678L121.344 22.6918C121.463 22.1273 121.547 21.5931 121.582 21.1023L117.592 20.8173ZM119.382 20.2798L102.622 20.3198L102.632 24.3198L119.392 24.2798L119.382 20.2798ZM104.627 22.3198V18.1198H100.627V22.3198H104.627ZM102.633 20.1198L116.793 20.0798L116.781 16.0798L102.621 16.1198L102.633 20.1198ZM115.677 16.4157L113.037 18.1757L115.256 21.5039L117.896 19.7439L115.677 16.4157ZM116.146 19.7922C116.116 18.5113 115.917 17.3075 115.454 16.2675L111.799 17.8921C111.977 18.2921 112.125 18.9283 112.147 19.8874L116.146 19.7922ZM115.465 16.292C114.993 15.1912 114.241 14.2827 113.195 13.6723L111.179 17.1274C111.413 17.2636 111.62 17.4751 111.789 17.8677L115.465 16.292ZM113.279 13.7246C112.271 13.0672 111.109 12.7998 109.907 12.7998V16.7998C110.518 16.7998 110.876 16.9325 111.094 17.075L113.279 13.7246ZM109.907 12.7998C108.62 12.7998 107.4 13.1081 106.321 13.7874L108.452 17.1723C108.814 16.9448 109.274 16.7998 109.907 16.7998V12.7998ZM106.339 13.7765C105.297 14.4175 104.508 15.326 103.958 16.4254L107.536 18.2142C107.786 17.7136 108.09 17.3954 108.435 17.1831L106.339 13.7765ZM103.935 16.474C103.406 17.6056 103.187 18.8848 103.187 20.2398H107.187C107.187 19.3015 107.341 18.634 107.559 18.1656L103.935 16.474ZM103.187 20.2398C103.187 21.6151 103.427 22.9137 103.987 24.0709L107.587 22.3287C107.347 21.8326 107.187 21.1579 107.187 20.2398H103.187ZM104.022 24.141C104.611 25.2451 105.443 26.1425 106.509 26.7894L108.585 23.3702C108.157 23.1104 107.816 22.7545 107.552 22.2586L104.022 24.141ZM106.581 26.831C107.698 27.4477 108.949 27.7198 110.267 27.7198V23.7198C109.505 23.7198 108.942 23.5653 108.513 23.3287L106.581 26.831ZM110.267 27.7198C111.451 27.7198 112.583 27.5218 113.632 27.0878L112.102 23.3918C111.604 23.5978 111.003 23.7198 110.267 23.7198V27.7198ZM113.685 27.0648C114.732 26.5955 115.642 25.9121 116.408 25.0411L113.405 22.3986C112.999 22.8609 112.548 23.1908 112.049 23.4148L113.685 27.0648ZM113.493 25.134L116.853 28.494L119.681 25.6656L116.321 22.3056L113.493 25.134ZM116.748 25.7782C115.993 26.6592 115.092 27.3111 114.025 27.7505L115.548 31.4492C117.201 30.7685 118.62 29.7405 119.785 28.3814L116.748 25.7782ZM114.025 27.7505C112.931 28.201 111.7 28.4398 110.307 28.4398V32.4398C112.167 32.4398 113.922 32.1187 115.548 31.4492L114.025 27.7505ZM128.308 30.0798L126.458 30.8383L126.967 32.0798H128.308V30.0798ZM120.308 10.5598V8.55982H117.327L118.458 11.3183L120.308 10.5598ZM126.908 10.5598L128.809 9.9362L128.357 8.55982H126.908V10.5598ZM131.988 26.0398V28.0398H134.75L133.889 25.4162L131.988 26.0398ZM129.548 26.0398L127.653 25.403L126.767 28.0398H129.548V26.0398ZM134.748 10.5598V8.55982H133.31L132.853 9.92295L134.748 10.5598ZM141.348 10.5598L143.188 11.344L144.375 8.55982H141.348V10.5598ZM133.028 30.0798V32.0798H134.35L134.868 30.864L133.028 30.0798ZM123.308 38.1998L121.494 37.3588L120.177 40.1998H123.308V38.1998ZM129.148 25.5998L130.66 24.2905L128.635 21.9519L127.334 24.7588L129.148 25.5998ZM133.028 30.0798L134.87 30.86L135.356 29.7125L134.54 28.7705L133.028 30.0798ZM129.588 38.1998V40.1998H130.913L131.43 38.98L129.588 38.1998ZM130.159 29.3214L122.159 9.80137L118.458 11.3183L126.458 30.8383L130.159 29.3214ZM120.308 12.5598H126.908V8.55982H120.308V12.5598ZM125.008 11.1834L130.088 26.6634L133.889 25.4162L128.809 9.9362L125.008 11.1834ZM131.988 24.0398H129.548V28.0398H131.988V24.0398ZM131.444 26.6767L136.644 11.1967L132.853 9.92295L127.653 25.403L131.444 26.6767ZM134.748 12.5598H141.348V8.55982H134.748V12.5598ZM139.509 9.77562L131.189 29.2956L134.868 30.864L143.188 11.344L139.509 9.77562ZM133.028 28.0798H128.308V32.0798H133.028V28.0798ZM125.123 39.0409L130.963 26.4409L127.334 24.7588L121.494 37.3588L125.123 39.0409ZM127.637 26.9092L131.517 31.3892L134.54 28.7705L130.66 24.2905L127.637 26.9092ZM131.187 29.2996L127.747 37.4197L131.43 38.98L134.87 30.86L131.187 29.2996ZM129.588 36.1998H123.308V40.1998H129.588V36.1998Z" fill="#02061A" mask="url(#path-1-outside-1_0_62)"/>
</svg>
